<?xml version="1.0" encoding="UTF-8" standalone="no" ?>
<!DOCTYPE svg PUBLIC "-//W3C//DTD SVG 1.1//EN" "http://www.w3.org/Graphics/SVG/1.1/DTD/svg11.dtd">
<svg xmlns="http://www.w3.org/2000/svg" xmlns:xlink="http://www.w3.org/1999/xlink" version="1.1" width="1080" height="1080" viewBox="0 0 1080 1080" xml:space="preserve">
<desc>Created with Fabric.js 5.2.4</desc>
<defs>
</defs>
<g transform="matrix(1 0 0 1 540 540)" id="b6ad3f77-90d2-4052-8c91-7886cf95cd30"  >
<rect style="stroke: none; stroke-width: 1; stroke-dasharray: none; stroke-linecap: butt; stroke-dashoffset: 0; stroke-linejoin: miter; stroke-miterlimit: 4; fill: rgb(255,255,255); fill-rule: nonzero; opacity: 1; visibility: hidden;" vector-effect="non-scaling-stroke"  x="-540" y="-540" rx="0" ry="0" width="1080" height="1080" />
</g>
<g transform="matrix(1 0 0 1 540 540)" id="119a258c-8bb9-40d4-bfbe-79bf0c403453"  >
</g>
<g transform="matrix(1 0 0 1 540.09 437.41)"  >
<path style="stroke: none; stroke-width: 1; stroke-dasharray: none; stroke-linecap: butt; stroke-dashoffset: 0; stroke-linejoin: miter; stroke-miterlimit: 4; fill: rgb(0,0,0); fill-rule: nonzero; opacity: 1;" vector-effect="non-scaling-stroke"  transform=" translate(-511.95, -409.79)" d="M 433.33 288.05 L 474.47 265.47 L 482.44 261.41 L 488.9 258.59 L 492.62 257.34 L 496.39 256.33 L 500.29 255.53 L 504.24 254.96 L 508.37 254.61 L 512.54 254.49 L 516.88 254.59 L 521.26 254.91 L 527.34 255.86 L 533.47 257.56 L 539.67 259.98 L 545.92 263.15 L 616.46 302.93 L 628.74 310.07 L 635.46 314.43 L 638.09 316.41 L 640.23 318.26 L 643.48 321.57 L 646.36 325.06 L 648.87 328.74 L 651.02 332.6 L 651.02 332.6 L 653.32 338.03 L 654.97 343.78 L 655.96 349.86 L 656.31 356.26 L 656.31 457.58 L 656.21 463.71 L 655.94 468.95 L 655.47 473.31 L 654.83 476.79 L 653.8 480.47 L 652.52 484.01 L 651 487.4 L 649.23 490.64 L 649.23 490.64 L 649.23 490.64 L 646.98 494.08 L 644.42 497.34 L 641.56 500.41 L 638.39 503.31 L 636.07 505.1 L 633.23 507 L 625.13 511.68 L 623.74 512.45 L 553.35 551.2 L 549.63 553.25 L 542.44 557.16 L 537.59 559.57 L 533.19 561.44 L 528.94 562.86 L 523.21 564.16 L 518.12 564.83 L 513.11 565.08 L 508.17 564.9 L 503.29 564.31 L 498.53 563.3 L 493.84 561.87 L 489.22 560.03 L 484.67 557.78 L 456.93 542.48 L 423.96 523.84 L 393.85 507.15 L 390.09 504.89 L 386.61 502.38 L 383.42 499.61 L 380.51 496.6 L 380.51 496.6 L 376.78 491.77 L 373.65 486.41 L 371.13 480.53 L 369.2 474.11 L 368.67 471.37 L 368.28 468.17 L 367.96 460.36 L 367.83 446.5 L 367.6 404.56 L 367.69 354.01 L 368.05 347.66 L 369.08 341.65 L 370.77 336 L 373.12 330.69 L 373.12 330.69 L 373.12 330.69 L 373.12 330.69 L 375.65 326.43 L 378.67 322.42 L 382.17 318.67 L 386.16 315.17 L 389.43 312.71 L 393.01 310.29 L 401.12 305.59 L 433.33 288.05 Z M 549.67 541.44 L 617.38 504.23 L 623.13 500.97 L 627.78 498.1 L 631.34 495.63 L 633.8 493.56 L 634.91 492.43 L 637.79 488.95 L 640.26 485.08 L 642.32 480.82 L 643.96 476.18 L 644.57 473.55 L 645.01 470.34 L 645.36 462.21 L 645.35 361.9 L 645.02 350.71 L 644.6 346.75 L 644.03 343.89 L 642.68 339.93 L 640.96 336.24 L 639.44 333.67 L 637.74 331.24 L 635.79 328.88 L 633.65 326.65 L 631.31 324.54 L 628.78 322.56 L 626.01 320.66 L 623.07 318.89 L 541.04 272.99 L 536.6 270.77 L 532.12 268.97 L 527.61 267.61 L 523.07 266.67 L 517.85 266.06 L 512.47 265.85 L 506.95 266.05 L 501.27 266.64 L 496.8 267.5 L 492.24 268.85 L 487.56 270.69 L 482.79 273.02 L 403.65 316.11 L 395.76 320.67 L 393.11 322.43 L 391.32 323.83 L 388.32 326.84 L 385.72 330.02 L 383.53 333.39 L 381.74 336.92 L 381.74 336.92 L 381.74 336.92 L 380.36 340.62 L 379.38 344.49 L 378.8 348.53 L 378.62 352.75 L 378.81 424.22 L 378.71 459.29 L 378.92 465.71 L 379.75 471.6 L 380.82 475.81 L 382.27 479.74 L 384.08 483.41 L 386.27 486.8 L 386.27 486.8 L 388.94 490.03 L 392.01 492.98 L 395.48 495.62 L 399.36 497.98 L 434.88 517.54 L 475.46 540.48 L 484.12 545.26 L 492.05 549.31 L 496.03 551.05 L 500.06 552.42 L 504.13 553.43 L 508.23 554.07 L 508.23 554.07 L 508.23 554.07 L 508.23 554.07 L 511.9 554.33 L 515.59 554.3 L 519.32 553.98 L 523.08 553.38 L 526.11 552.63 L 529.39 551.54 L 532.94 550.08 L 536.74 548.28 L 549.67 541.44 Z" stroke-linecap="round" />
</g>
<g transform="matrix(1 0 0 1 540.1 436.84)"  >
<path style="stroke: none; stroke-width: 1; stroke-dasharray: none; stroke-linecap: butt; stroke-dashoffset: 0; stroke-linejoin: miter; stroke-miterlimit: 4; fill: rgb(0,0,0); fill-rule: nonzero; opacity: 1;" vector-effect="non-scaling-stroke"  transform=" translate(-511.96, -409.22)" d="M 476.86 492.81 L 477.82 493.08 L 478.73 492.82 L 513.42 473.54 L 514.41 472.57 L 514.77 471.23 L 514.65 441.7 L 514.34 438.8 L 514.17 438.35 L 513.82 438.02 L 511.82 436.71 L 509.52 435.23 L 456.88 406.63 L 444.21 399.3 L 442 397.84 L 440 396.22 L 438.21 394.45 L 436.64 392.53 L 436.64 392.53 L 436.64 392.53 L 435.25 390.41 L 434.09 388.14 L 433.15 385.7 L 432.42 383.11 L 431.41 377.31 L 431.02 371.52 L 431.08 354 L 431.32 349.65 L 431.96 345.52 L 432.99 341.6 L 434.43 337.91 L 435.66 335.58 L 437.06 333.59 L 438.93 331.58 L 441.25 329.69 L 444.1 327.83 L 448.63 325.23 L 448.93 325.06 L 473.06 311.73 L 486.45 304.68 L 492.02 302.37 L 492.02 302.37 L 496.92 300.94 L 501.99 300 L 507.22 299.55 L 512.63 299.58 L 518.55 300.12 L 524.07 301.14 L 529.18 302.63 L 533.89 304.59 L 542.78 309.26 L 557.24 317.29 L 622.32 353.93 L 634.5 361.16 L 635.28 361.98 L 635.56 363.08 L 635.56 372.31 L 635.49 372.82 L 635.29 373.1 L 635.29 373.1 L 634.95 373.15 L 634.48 372.97 L 602.84 355.56 L 542.93 322.01 L 542.22 321.82 L 541.51 322.01 L 511.5 338.74 L 511.01 339.1 L 511.01 339.1 L 510.34 340.13 L 510.07 341.58 L 509.76 356.74 L 510.13 372.56 L 510.35 373.88 L 510.88 374.98 L 510.88 374.98 L 511.58 375.76 L 512.52 376.39 L 538.64 390.54 L 581.32 414.53 L 584.94 417.01 L 587.93 420 L 587.93 420 L 587.93 420 L 589.36 421.92 L 590.58 424 L 591.61 426.24 L 592.44 428.65 L 593.83 434.78 L 594.45 440.91 L 594.65 451.65 L 594.6 464.03 L 594.44 467.63 L 594.07 471.07 L 593.49 474.34 L 592.69 477.45 L 591.2 481.21 L 589.11 484.52 L 589.11 484.52 L 587.74 486.11 L 586.2 487.58 L 584.49 488.9 L 582.6 490.1 L 569.96 497.2 L 557.62 503.9 L 545.58 510.2 L 533.83 516.1 L 530.19 517.5 L 525.93 518.43 L 520.1 518.88 L 511.48 518.87 L 506.8 518.53 L 502.21 517.73 L 502.21 517.73 L 502.21 517.73 L 498.77 516.81 L 495.39 515.63 L 492.06 514.17 L 488.8 512.45 L 441.02 485.16 L 389.42 455.93 L 388.65 455.18 L 388.37 454.14 L 388.37 443.18 L 388.38 443.09 L 388.6 442.84 L 388.92 442.86 L 476.86 492.81 Z M 505.7 329.42 L 528.9 316.39 L 529.36 315.71 L 529.08 314.94 L 528.84 314.78 L 526.02 313.66 L 523.09 312.78 L 519.98 312.11 L 516.6 311.64 L 513.09 311.39 L 509.38 311.34 L 505.43 311.52 L 501.35 311.9 L 496.39 312.79 L 491.78 314.26 L 482.93 318.72 L 460.57 330.67 L 449.87 336.66 L 447.52 338.41 L 445.75 340.36 L 444.66 342.15 L 443.77 344.31 L 443.11 346.89 L 442.61 350.09 L 442.29 354.12 L 442.16 359.41 L 442.53 373.78 L 442.95 377.87 L 443.83 381.42 L 445.17 384.42 L 447 386.94 L 449.32 389.02 L 454.53 392.14 L 517.66 426.9 L 519.38 427.97 L 520.9 429.16 L 522.25 430.49 L 523.4 431.95 L 523.4 431.95 L 524.43 433.64 L 525.24 435.47 L 525.85 437.46 L 526.24 439.59 L 526.76 444.77 L 527.08 450.86 L 527.21 457.85 L 527.13 465.75 L 526.95 469.44 L 526.59 472.59 L 526.05 475.22 L 525.32 477.32 L 524.3 479.15 L 523.02 480.72 L 523.02 480.72 L 523.02 480.72 L 521.74 481.85 L 520.27 482.79 L 490.14 499.38 L 489.67 499.92 L 490.12 500.48 L 493.42 502.38 L 496.72 503.99 L 500.02 505.3 L 503.31 506.32 L 507.4 507.03 L 513.08 507.39 L 518.94 507.45 L 523.01 507.22 L 526.8 506.56 L 530.6 505.46 L 534.4 503.92 L 538.21 501.95 L 570.19 484.63 L 574.32 482.29 L 577.36 480.3 L 578.67 479.14 L 579.78 477.77 L 580.74 476.15 L 581.6 474.21 L 582.28 472.03 L 582.81 469.61 L 583.26 464.54 L 583.35 451.03 L 583.19 442.64 L 582.57 436.55 L 582.04 433.99 L 581.36 431.75 L 580.07 428.99 L 578.36 426.61 L 576.22 424.59 L 568.89 420.33 L 531.87 400.12 L 507.97 387.31 L 504.31 385.14 L 503.07 384.17 L 502.23 383.29 L 500.79 380.91 L 499.65 378 L 498.84 374.56 L 498.47 371.06 L 498.15 355.75 L 498.54 342.05 L 498.86 339.33 L 499.51 336.86 L 500.49 334.66 L 501.78 332.72 L 501.78 332.72 L 503.55 330.92 L 505.7 329.42 Z" stroke-linecap="round" />
</g>
<g transform="matrix(1 0 0 1 267.78 681.63)"  >
<path style="stroke: none; stroke-width: 1; stroke-dasharray: none; stroke-linecap: butt; stroke-dashoffset: 0; stroke-linejoin: miter; stroke-miterlimit: 4; fill: rgb(0,0,0); fill-rule: nonzero; opacity: 1;" vector-effect="non-scaling-stroke"  transform=" translate(-239.65, -654.01)" d="M 224.97 634.7 L 225.34 636.33 L 226.08 637.91 L 227.13 639.29 L 228.5 640.56 L 230.27 641.75 L 232.36 642.8 L 234.77 643.74 L 240.9 645.37 L 246.77 646.74 L 252.57 648.33 L 253.62 648.65 L 258.21 650.37 L 262.13 652.55 L 265.37 655.18 L 266.74 656.67 L 267.94 658.27 L 267.94 658.27 L 267.94 658.27 L 267.94 658.27 L 267.94 658.27 L 268.99 660.03 L 269.87 661.9 L 270.56 663.9 L 271.09 666.01 L 271.6 670.6 L 271.4 675.66 L 270.98 678.17 L 270.24 680.66 L 269.17 683.12 L 267.78 685.56 L 266.35 687.49 L 264.63 689.26 L 262.57 690.95 L 260.31 692.43 L 257.71 693.79 L 255.04 694.89 L 252.26 695.74 L 249.55 696.29 L 243.33 696.83 L 235.37 696.87 L 230.03 696.4 L 225.21 695.28 L 222.99 694.47 L 220.91 693.49 L 218.95 692.35 L 217.12 691.05 L 217.12 691.05 L 217.12 691.05 L 217.12 691.05 L 214.12 688.25 L 211.55 684.91 L 209.41 681.02 L 207.7 676.58 L 207.75 676.07 L 208.13 675.74 L 219.91 671.72 L 220.89 671.71 L 221.49 672.49 L 222.95 675.87 L 224.75 678.77 L 226.93 681.25 L 229.43 683.23 L 231.29 684.29 L 233.27 685.12 L 235.37 685.73 L 237.58 686.11 L 239.93 686.27 L 242.37 686.19 L 244.9 685.89 L 247.5 685.36 L 250.88 684.21 L 252.22 683.47 L 253.33 682.63 L 254.49 681.45 L 255.48 680.17 L 256.27 678.8 L 256.87 677.38 L 257.26 675.91 L 257.43 674.42 L 257.38 672.93 L 257.09 671.45 L 256.63 670.17 L 255.97 668.94 L 254.19 666.8 L 252.45 665.39 L 250.46 664.18 L 248.22 663.15 L 245.73 662.31 L 230.25 657.83 L 227.02 656.75 L 223.99 655.43 L 221.15 653.87 L 218.51 652.08 L 217.59 651.34 L 215.36 649.04 L 213.59 646.42 L 212.21 643.39 L 211.31 640.16 L 210.88 636.6 L 210.95 633 L 211.52 629.45 L 212.57 626.04 L 214.12 622.81 L 216.19 619.91 L 218.69 617.43 L 221.7 615.32 L 225.09 613.67 L 228.92 612.41 L 233.24 611.56 L 237.91 611.15 L 242.98 611.18 L 248.23 611.64 L 251.63 612.31 L 254.91 613.41 L 258.01 614.92 L 260.89 616.82 L 263.43 619.03 L 265.65 621.58 L 267.45 624.34 L 268.85 627.38 L 269.19 628.36 L 269.17 628.73 L 268.91 628.99 L 258.17 633.62 L 258.15 633.63 L 257.63 633.73 L 257.1 633.63 L 256.65 633.32 L 256.35 632.87 L 254.79 629.87 L 252.72 627.27 L 250.19 625.16 L 247.26 623.61 L 244.55 622.8 L 241.63 622.48 L 238.41 622.54 L 235.57 622.85 L 233.09 623.4 L 230.99 624.2 L 229.27 625.17 L 227.84 626.28 L 226.68 627.54 L 225.81 628.93 L 225.81 628.93 L 225.81 628.93 L 225.3 630.22 L 224.99 631.61 L 224.88 633.11 L 224.97 634.7 Z" stroke-linecap="round" />
</g>
<g transform="matrix(1 0 0 1 473.05 681.25)"  >
<path style="stroke: none; stroke-width: 1; stroke-dasharray: none; stroke-linecap: butt; stroke-dashoffset: 0; stroke-linejoin: miter; stroke-miterlimit: 4; fill: rgb(0,0,0); fill-rule: nonzero; opacity: 1;" vector-effect="non-scaling-stroke"  transform=" translate(-444.92, -653.62)" d="M 423.76 678.84 L 417.36 694.89 L 417.14 695.18 L 416.74 695.31 L 403.53 695.31 L 403.05 695.11 L 402.88 694.77 L 402.92 694.39 L 437.76 612.27 L 437.9 612.06 L 438.37 611.87 L 450.91 611.93 L 451.15 611.97 L 451.51 612.33 L 486.96 694.44 L 486.9 695.07 L 486.34 695.37 L 472.36 695.18 L 472 695.06 L 471.76 694.77 L 465.05 678.79 L 464.81 678.5 L 464.44 678.39 L 424.38 678.43 L 424.3 678.43 L 423.76 678.84 Z M 429.21 664.85 L 429.28 665.49 L 429.84 665.79 L 429.84 665.79 L 429.85 665.79 L 458.42 665.64 L 458.56 665.62 L 459.02 665.27 L 459.05 664.7 L 444.58 629.74 L 444.15 629.36 L 443.66 629.39 L 443.32 629.75 L 429.21 664.85 Z" stroke-linecap="round" />
</g>
<g transform="matrix(1 0 0 1 802.23 681.32)"  >
<path style="stroke: none; stroke-width: 1; stroke-dasharray: none; stroke-linecap: butt; stroke-dashoffset: 0; stroke-linejoin: miter; stroke-miterlimit: 4; fill: rgb(0,0,0); fill-rule: nonzero; opacity: 1;" vector-effect="non-scaling-stroke"  transform=" translate(-774.1, -653.69)" d="M 793.33 678.34 L 753.79 678.41 L 753.24 678.58 L 752.88 679.02 L 746.62 694.62 L 746.37 694.99 L 745.73 695.24 L 733.13 695.4 L 732.43 695.12 L 732.16 694.61 L 732.22 694.04 L 766.8 612.68 L 767.16 612.25 L 767.69 612.08 L 780.16 611.99 L 780.36 612.01 L 780.79 612.21 L 781.07 612.58 L 815.96 694 L 816.04 694.47 L 815.88 694.93 L 815.52 695.25 L 815.06 695.37 L 801.7 695.32 L 801.16 695.16 L 800.8 694.72 L 794.24 678.94 L 793.88 678.51 L 793.33 678.34 Z M 758.32 665.31 L 758.39 666.03 L 759.04 666.37 L 788.02 666.17 L 788.09 666.16 L 788.67 665.79 L 788.72 665.09 L 773.99 630.39 L 773.55 629.97 L 772.97 629.99 L 772.57 630.4 L 758.32 665.31 Z" stroke-linecap="round" />
</g>
<g transform="matrix(1 0 0 1 687.4 681.37)"  >
<path style="stroke: none; stroke-width: 1; stroke-dasharray: none; stroke-linecap: butt; stroke-dashoffset: 0; stroke-linejoin: miter; stroke-miterlimit: 4; fill: rgb(0,0,0); fill-rule: nonzero; opacity: 1;" vector-effect="non-scaling-stroke"  transform=" translate(-659.27, -653.75)" d="M 627.39 638.75 L 627.43 694.7 L 627.3 695.01 L 627 695.13 L 614.52 695.2 L 614.22 695.07 L 614.09 694.77 L 614.06 612.78 L 614.19 612.47 L 614.49 612.35 L 631.02 612.28 L 631.41 612.54 L 659.26 677.07 L 659.32 677.17 L 659.71 677.33 L 660.05 677.07 L 687.18 612.5 L 687.57 612.24 L 704.03 612.13 L 704.26 612.2 L 704.46 612.56 L 704.49 694.81 L 704.42 695.05 L 704.06 695.24 L 691.17 695.35 L 690.87 695.22 L 690.74 694.92 L 690.59 637.07 L 690.35 636.68 L 690.01 636.66 L 689.76 636.9 L 665.16 695.1 L 664.76 695.36 L 653.67 695.36 L 653.48 695.31 L 653.28 695.1 L 628.21 638.58 L 627.96 638.35 L 627.57 638.4 L 627.39 638.75 Z" stroke-linecap="round" />
</g>
<g transform="matrix(1 0 0 1 366.73 681.48)"  >
<path style="stroke: none; stroke-width: 1; stroke-dasharray: none; stroke-linecap: butt; stroke-dashoffset: 0; stroke-linejoin: miter; stroke-miterlimit: 4; fill: rgb(0,0,0); fill-rule: nonzero; opacity: 1;" vector-effect="non-scaling-stroke"  transform=" translate(-338.6, -653.86)" d="M 338.5 647.37 L 358.32 647.37 L 358.98 647.11 L 359.25 646.45 L 359.25 646.45 L 359.25 612.68 L 359.35 612.43 L 359.59 612.33 L 373.33 612.33 L 373.69 612.45 L 373.82 612.83 L 373.82 695.07 L 373.77 695.24 L 373.47 695.42 L 359.94 695.42 L 359.19 695.17 L 358.94 694.42 L 358.94 661.03 L 358.76 660.58 L 358.31 660.39 L 338.69 660.34 L 318.87 660.34 L 318.22 660.6 L 317.94 661.25 L 317.94 661.26 L 317.94 695.03 L 317.84 695.28 L 317.6 695.38 L 317.6 695.38 L 317.6 695.38 L 303.86 695.38 L 303.5 695.26 L 303.37 694.88 L 303.37 612.64 L 303.48 612.39 L 303.72 612.29 L 317.25 612.29 L 318 612.54 L 318.25 613.29 L 318.25 646.68 L 318.44 647.12 L 318.88 647.32 L 338.5 647.37 Z" stroke-linecap="round" />
</g>
<g transform="matrix(1 0 0 1 577.09 681.49)"  >
<path style="stroke: none; stroke-width: 1; stroke-dasharray: none; stroke-linecap: butt; stroke-dashoffset: 0; stroke-linejoin: miter; stroke-miterlimit: 4; fill: rgb(0,0,0); fill-rule: nonzero; opacity: 1;" vector-effect="non-scaling-stroke"  transform=" translate(-548.96, -653.86)" d="M 558.51 663.21 L 569.57 678.62 L 580.6 694.75 L 580.65 694.86 L 580.59 695.22 L 580.26 695.38 L 565.26 695.38 L 564.1 695.09 L 563.22 694.28 L 544.16 665.28 L 543.64 664.8 L 542.96 664.63 L 532.61 664.63 L 532.09 664.85 L 531.87 665.37 L 531.87 694.59 L 531.69 695.12 L 531.15 695.3 L 517.79 695.3 L 517.4 695.17 L 517.27 694.78 L 517.27 612.59 L 517.5 612.35 L 517.5 612.35 L 547.05 612.34 L 554.16 612.45 L 558.01 612.69 L 560.6 613.17 L 563.1 613.89 L 565.48 614.84 L 567.72 616.03 L 569.77 617.42 L 571.65 619.03 L 573.26 620.77 L 574.67 622.71 L 576.22 625.66 L 577.31 628.95 L 578.17 633.65 L 578.42 638.16 L 578.06 642.47 L 577.09 646.59 L 577.09 646.59 L 577.09 646.59 L 576.39 648.53 L 574.81 651.7 L 572.77 654.48 L 572.77 654.48 L 572.77 654.48 L 571.27 656.02 L 569.6 657.4 L 567.74 658.63 L 565.71 659.7 L 562.08 661.29 L 558.73 662.5 L 558.66 662.53 L 558.43 662.83 L 558.51 663.21 Z M 531.61 624.39 L 531.71 652.01 L 531.92 652.51 L 532.43 652.72 L 549.56 652.66 L 552.34 652.4 L 555.02 651.63 L 557.48 650.38 L 559.64 648.71 L 561.4 646.68 L 562.72 644.36 L 563.52 641.85 L 563.78 639.23 L 563.78 639.23 L 563.78 636.93 L 563.49 634.32 L 562.67 631.82 L 561.35 629.51 L 559.56 627.49 L 557.4 625.83 L 554.92 624.6 L 552.24 623.85 L 549.46 623.6 L 532.33 623.66 L 531.82 623.88 L 531.61 624.39 Z" stroke-linecap="round" />
</g>
<g transform="matrix(1 0 0 1 523.26 779.36)"  >
<path style="stroke: none; stroke-width: 1; stroke-dasharray: none; stroke-linecap: butt; stroke-dashoffset: 0; stroke-linejoin: miter; stroke-miterlimit: 4; fill: rgb(0,0,0); fill-rule: nonzero; opacity: 1;" vector-effect="non-scaling-stroke"  transform=" translate(-495.13, -751.73)" d="M 503.87 741.51 L 503.23 739.45 L 502.08 738 L 502.08 738 L 501.07 737.4 L 498.16 736.49 L 498.16 736.49 L 496.38 736.24 L 494.55 736.21 L 492.68 736.39 L 490.77 736.78 L 489.32 737.34 L 488.15 738.18 L 487.04 739.76 L 486.47 741.67 L 486.49 743.66 L 487.11 745.53 L 488.2 746.92 L 489.27 747.65 L 491.1 748.48 L 492.58 748.92 L 494.46 749.27 L 499.72 750.35 L 503.17 751.53 L 505.78 753.09 L 506.76 754.02 L 507.58 755.12 L 508.19 756.35 L 508.59 757.77 L 508.77 759.28 L 508.74 760.98 L 508.42 762.79 L 507.79 764.41 L 506.4 766.39 L 504.36 768.07 L 501.85 769.27 L 499.05 769.94 L 496.64 770.17 L 494.21 770.18 L 491.97 769.96 L 489.81 769.48 L 487.95 768.83 L 486.24 767.93 L 484.8 766.85 L 483.55 765.53 L 482.38 763.68 L 481.55 761.47 L 481.48 760.85 L 481.62 760.36 L 481.62 760.36 L 481.62 760.36 L 482.08 759.94 L 482.86 759.71 L 483.54 759.61 L 484.55 759.76 L 484.55 759.76 L 485.01 760.19 L 485.32 760.87 L 485.85 762.3 L 486.51 763.53 L 487.32 764.56 L 488.28 765.4 L 488.28 765.4 L 489.71 766.18 L 491.66 766.78 L 493.96 767.17 L 496.3 767.28 L 498.45 767.11 L 500.34 766.66 L 501.88 766.01 L 503.15 765.12 L 504.17 763.95 L 504.85 762.5 L 505.21 761.03 L 505.31 759.69 L 505.17 758.48 L 504.78 757.39 L 504.78 757.39 L 504.78 757.39 L 504.78 757.39 L 504.02 756.3 L 502.94 755.38 L 501.54 754.62 L 499.81 754.03 L 489.45 751.21 L 487.64 750.47 L 486.12 749.56 L 484.89 748.47 L 483.96 747.22 L 483.96 747.22 L 483.96 747.22 L 483.35 745.9 L 482.99 744.45 L 482.87 742.84 L 483.01 741.09 L 483.39 739.5 L 484.07 738.09 L 484.07 738.09 L 484.07 738.09 L 484.83 737.07 L 485.79 736.17 L 488.28 734.74 L 490.72 733.93 L 493.41 733.43 L 496.18 733.28 L 498.74 733.5 L 501.1 734.07 L 503.09 734.93 L 504.78 736.1 L 506.18 737.61 L 507.07 739.13 L 507.68 740.91 L 507.59 741.84 L 507.59 741.84 L 507.26 742.13 L 506.74 742.28 L 505.26 742.51 L 504.31 742.35 L 503.87 741.51 Z" stroke-linecap="round" />
</g>
<g transform="matrix(1 0 0 1 722 779.42)"  >
<path style="stroke: none; stroke-width: 1; stroke-dasharray: none; stroke-linecap: butt; stroke-dashoffset: 0; stroke-linejoin: miter; stroke-miterlimit: 4; fill: rgb(0,0,0); fill-rule: nonzero; opacity: 1;" vector-effect="non-scaling-stroke"  transform=" translate(-693.87, -751.8)" d="M 702.78 763.53 L 703.48 761.6 L 703.64 759.62 L 703.25 757.81 L 702.35 756.45 L 701.7 755.93 L 699.8 754.8 L 698.51 754.24 L 687.16 750.88 L 684.73 749.63 L 682.96 747.9 L 682.96 747.9 L 682.96 747.9 L 681.9 745.91 L 681.38 743.53 L 681.46 740.8 L 681.79 739.53 L 682.3 738.39 L 683.26 737.02 L 684.49 735.88 L 686.05 734.91 L 687.8 734.18 L 689.92 733.63 L 692.13 733.36 L 694.49 733.33 L 696.77 733.56 L 698.96 734.05 L 700.87 734.79 L 702.51 735.77 L 703.87 737.01 L 703.87 737.01 L 703.87 737.01 L 705.05 738.65 L 705.89 740.59 L 705.99 741.18 L 705.86 741.61 L 705.86 741.61 L 705.5 741.86 L 704.89 741.95 L 703.1 741.95 L 702.2 741.68 L 701.73 740.87 L 701.22 739.46 L 700.49 738.43 L 699.56 737.72 L 697.87 736.97 L 695.85 736.44 L 693.66 736.17 L 691.63 736.21 L 689.89 736.51 L 688.28 737.09 L 687.02 737.89 L 686.01 738.97 L 685.01 740.87 L 684.72 742.75 L 684.72 742.75 L 685.09 744.5 L 686.1 746.23 L 687 747.13 L 688.31 747.94 L 689.91 748.58 L 691.91 749.13 L 693.55 749.5 L 698.68 750.77 L 702.06 752.08 L 704.61 753.75 L 705.57 754.73 L 706.36 755.87 L 706.96 757.18 L 707.34 758.69 L 707.43 760.73 L 707.19 762.19 L 706.71 763.57 L 705.97 764.94 L 705.01 766.18 L 703.86 767.28 L 702.55 768.22 L 701.11 768.97 L 699.57 769.52 L 696.96 770.05 L 694.09 770.26 L 691.23 770.12 L 688.61 769.64 L 686.28 768.85 L 684.35 767.8 L 682.76 766.49 L 681.5 764.85 L 680.74 763.18 L 680.31 761.24 L 680.33 760.62 L 680.54 760.17 L 680.54 760.17 L 680.54 760.17 L 680.96 759.91 L 681.57 759.82 L 682.31 759.82 L 683.38 760.2 L 683.99 761.16 L 684.65 763.03 L 685.68 764.56 L 687.27 765.84 L 689.32 766.71 L 691.24 767.12 L 693.43 767.32 L 695.6 767.27 L 697.56 766.97 L 699.19 766.48 L 700.66 765.75 L 701.79 764.85 L 702.67 763.72 L 702.78 763.53 Z" stroke-linecap="round" />
</g>
<g transform="matrix(1 0 0 1 381.7 779.3)"  >
<path style="stroke: none; stroke-width: 1; stroke-dasharray: none; stroke-linecap: butt; stroke-dashoffset: 0; stroke-linejoin: miter; stroke-miterlimit: 4; fill: rgb(0,0,0); fill-rule: nonzero; opacity: 1;" vector-effect="non-scaling-stroke"  transform=" translate(-353.56, -751.67)" d="M 344.01 742.33 L 343.93 742.31 L 343.6 742.39 L 343.45 742.7 L 343.45 768.47 L 343.36 769.12 L 343.07 769.56 L 343.07 769.56 L 342.6 769.77 L 341.95 769.77 L 341.03 769.63 L 340.41 769.45 L 339.97 769.11 L 339.71 768.63 L 339.62 768 L 339.62 734.69 L 339.73 734.24 L 340.03 733.91 L 340.14 733.84 L 340.91 733.57 L 341.86 733.59 L 342.49 733.9 L 343.15 734.63 L 363.1 762.7 L 363.45 762.9 L 363.82 762.76 L 363.82 762.76 L 363.87 762.7 L 364.2 761.95 L 364.29 761 L 364.17 734.81 L 364.42 734.06 L 365.17 733.81 L 366.44 733.81 L 367.24 734.08 L 367.51 734.88 L 367.51 768.78 L 367.36 769.21 L 366.98 769.44 L 365.58 769.63 L 364.58 769.47 L 363.81 769 L 363.05 768.14 L 344.77 742.99 L 344.01 742.33 Z" stroke-linecap="round" />
</g>
<g transform="matrix(1 0 0 1 431.1 779.33)"  >
<path style="stroke: none; stroke-width: 1; stroke-dasharray: none; stroke-linecap: butt; stroke-dashoffset: 0; stroke-linejoin: miter; stroke-miterlimit: 4; fill: rgb(0,0,0); fill-rule: nonzero; opacity: 1;" vector-effect="non-scaling-stroke"  transform=" translate(-402.97, -751.7)" d="M 387.98 734.46 L 388.13 734.08 L 388.51 733.93 L 400.89 733.86 L 404.2 734.16 L 407.39 735.08 L 410.33 736.59 L 412.91 738.62 L 415.03 741.11 L 416.62 743.95 L 417.6 747.03 L 417.94 750.24 L 417.94 750.24 L 417.96 752.92 L 417.96 752.92 L 417.65 756.14 L 416.7 759.23 L 415.14 762.09 L 413.05 764.59 L 410.49 766.66 L 407.56 768.19 L 404.38 769.15 L 401.07 769.48 L 388.69 769.55 L 388.36 769.43 L 388.16 769.02 L 387.98 734.46 Z M 391.48 737.64 L 391.48 765.84 L 391.72 766.42 L 392.29 766.68 L 392.29 766.68 L 392.32 766.68 L 400.45 766.68 L 403.11 766.42 L 405.67 765.64 L 408.03 764.38 L 410.1 762.69 L 411.8 760.62 L 413.06 758.27 L 413.84 755.71 L 414.1 753.05 L 414.1 753.05 L 414.1 750.43 L 414.1 750.43 L 413.84 747.77 L 413.06 745.21 L 411.8 742.86 L 410.1 740.79 L 408.03 739.1 L 405.67 737.84 L 403.11 737.06 L 400.45 736.8 L 392.32 736.8 L 392.24 736.8 L 391.7 737.07 L 391.48 737.64 Z" stroke-linecap="round" />
</g>
<g transform="matrix(1 0 0 1 477.91 779.62)"  >
<path style="stroke: none; stroke-width: 1; stroke-dasharray: none; stroke-linecap: butt; stroke-dashoffset: 0; stroke-linejoin: miter; stroke-miterlimit: 4; fill: rgb(0,0,0); fill-rule: nonzero; opacity: 1;" vector-effect="non-scaling-stroke"  transform=" translate(-449.77, -751.99)" d="M 449.79 767.13 L 452.03 766.93 L 454.07 766.33 L 455.87 765.35 L 457.36 763.99 L 458.25 762.71 L 458.92 761.23 L 459.56 758.23 L 459.79 754.25 L 459.8 734.79 L 460.07 734.12 L 460.73 733.84 L 460.73 733.84 L 462.44 733.84 L 463.16 734.08 L 463.41 734.8 L 463.46 750.67 L 463.31 758.25 L 463.02 760.48 L 462.47 762.48 L 461.65 764.26 L 460.57 765.82 L 458.62 767.62 L 456.76 768.72 L 454.66 769.51 L 452.34 769.98 L 449.79 770.14 L 447.24 769.99 L 444.91 769.52 L 442.82 768.73 L 440.95 767.63 L 439 765.84 L 439 765.84 L 439 765.84 L 437.91 764.28 L 437.09 762.5 L 436.54 760.5 L 436.25 758.27 L 436.09 750.7 L 436.11 734.82 L 436.35 734.1 L 437.08 733.86 L 438.79 733.86 L 438.79 733.86 L 439.45 734.14 L 439.72 734.81 L 439.76 754.27 L 439.99 758.25 L 440.64 761.25 L 441.31 762.73 L 442.21 764 L 443.7 765.36 L 445.5 766.34 L 447.54 766.93 L 449.79 767.13 Z" stroke-linecap="round" />
</g>
<g transform="matrix(1 0 0 1 565.54 779.23)"  >
<path style="stroke: none; stroke-width: 1; stroke-dasharray: none; stroke-linecap: butt; stroke-dashoffset: 0; stroke-linejoin: miter; stroke-miterlimit: 4; fill: rgb(0,0,0); fill-rule: nonzero; opacity: 1;" vector-effect="non-scaling-stroke"  transform=" translate(-537.41, -751.61)" d="M 537.41 733.65 L 550.25 733.86 L 551.09 734.23 L 551.43 735.07 L 551.43 735.71 L 551.1 736.49 L 550.32 736.82 L 540.03 736.82 L 539.56 737.01 L 539.37 737.48 L 539.37 768.49 L 539.15 769.11 L 538.58 769.46 L 537.4 769.56 L 536.22 769.46 L 535.65 769.11 L 535.43 768.49 L 535.45 737.48 L 535.25 737.01 L 534.79 736.82 L 524.5 736.81 L 523.71 736.49 L 523.39 735.7 L 523.39 735.06 L 523.73 734.22 L 524.57 733.85 L 537.41 733.65 Z" stroke-linecap="round" />
</g>
<g transform="matrix(1 0 0 1 609.82 779.2)"  >
<path style="stroke: none; stroke-width: 1; stroke-dasharray: none; stroke-linecap: butt; stroke-dashoffset: 0; stroke-linejoin: miter; stroke-miterlimit: 4; fill: rgb(0,0,0); fill-rule: nonzero; opacity: 1;" vector-effect="non-scaling-stroke"  transform=" translate(-581.69, -751.58)" d="M 586.16 755.25 L 585.68 755.58 L 585.64 756.15 L 585.7 756.28 L 594.05 768.98 L 594.14 769.33 L 593.8 769.45 L 591.2 769.45 L 590.5 769.28 L 589.98 768.79 L 581.9 756.49 L 581.41 756.04 L 580.76 755.88 L 572.72 755.88 L 572.28 756.03 L 572.13 756.47 L 572.13 768.66 L 571.94 769.25 L 571.35 769.44 L 569.23 769.44 L 568.67 769.25 L 568.49 768.71 L 568.49 735 L 568.83 734.15 L 569.67 733.78 L 576.04 733.7 L 583.28 733.93 L 586.28 734.39 L 589.5 735.49 L 590.71 736.12 L 591.76 736.89 L 592.86 738.05 L 593.71 739.38 L 594.36 740.94 L 594.75 742.59 L 594.89 744.38 L 594.76 746.17 L 594.38 747.93 L 593.76 749.6 L 592.58 751.59 L 591.06 753.17 L 591.06 753.17 L 588.84 754.49 L 586.16 755.25 Z M 572.21 737.44 L 572.29 752.5 L 572.47 752.92 L 572.89 753.1 L 582.89 753.04 L 584.55 752.89 L 586.13 752.46 L 587.6 751.76 L 588.88 750.83 L 589.93 749.69 L 590.7 748.39 L 591.18 746.99 L 591.33 745.53 L 591.33 744.21 L 591.16 742.75 L 590.67 741.35 L 589.88 740.07 L 588.82 738.94 L 587.53 738.02 L 586.06 737.34 L 584.46 736.92 L 582.81 736.78 L 572.81 736.84 L 572.58 736.88 L 572.31 737.11 L 572.21 737.44 Z" stroke-linecap="round" />
</g>
<g transform="matrix(1 0 0 1 644.57 779.25)"  >
<rect style="stroke: none; stroke-width: 1; stroke-dasharray: none; stroke-linecap: butt; stroke-dashoffset: 0; stroke-linejoin: miter; stroke-miterlimit: 4; fill: rgb(0,0,0); fill-rule: nonzero; opacity: 1;" vector-effect="non-scaling-stroke"  x="-1.9" y="-17.88" rx="1.16" ry="1.16" width="3.8" height="35.76" />
</g>
<g transform="matrix(1 0 0 1 679.48 779.26)"  >
<path style="stroke: none; stroke-width: 1; stroke-dasharray: none; stroke-linecap: butt; stroke-dashoffset: 0; stroke-linejoin: miter; stroke-miterlimit: 4; fill: rgb(0,0,0); fill-rule: nonzero; opacity: 1;" vector-effect="non-scaling-stroke"  transform=" translate(-651.35, -751.64)" d="M 643.32 766.63 L 663.12 766.68 L 663.55 766.84 L 663.75 767.36 L 663.64 769.03 L 663.44 769.46 L 663 769.63 L 639.75 769.56 L 639.38 769.44 L 639.12 768.93 L 638.94 734.29 L 639.13 733.83 L 639.59 733.65 L 663.08 733.86 L 663.46 734 L 663.71 734.5 L 663.71 736.21 L 663.57 736.61 L 663.07 736.85 L 643.42 736.87 L 642.97 737.06 L 642.78 737.51 L 642.78 748.98 L 642.95 749.41 L 643.36 749.62 L 643.42 749.62 L 660.09 749.68 L 660.53 749.85 L 660.73 750.29 L 660.82 751.97 L 660.64 752.44 L 660.18 752.64 L 643.38 752.63 L 642.94 752.8 L 642.74 753.23 L 642.74 753.23 L 642.74 753.27 L 642.68 765.99 L 642.87 766.44 L 643.32 766.63 Z" stroke-linecap="round" />
</g>
<g transform="matrix(1 0 0 1 345.46 779.38)"  >
<rect style="stroke: none; stroke-width: 1; stroke-dasharray: none; stroke-linecap: butt; stroke-dashoffset: 0; stroke-linejoin: miter; stroke-miterlimit: 4; fill: rgb(0,0,0); fill-rule: nonzero; opacity: 1;" vector-effect="non-scaling-stroke"  x="-2.05" y="-17.69" rx="0.93" ry="0.93" width="4.1" height="35.38" />
</g>
<g transform="matrix(1 0 0 1 274.09 780.47)"  >
<rect style="stroke: none; stroke-width: 1; stroke-dasharray: none; stroke-linecap: butt; stroke-dashoffset: 0; stroke-linejoin: miter; stroke-miterlimit: 4; fill: rgb(0,0,0); fill-rule: nonzero; opacity: 1;" vector-effect="non-scaling-stroke"  x="-36.47" y="-1.13" rx="1.11" ry="1.11" width="72.94" height="2.26" />
</g>
<g transform="matrix(1 0 0 1 805.89 780.47)"  >
<rect style="stroke: none; stroke-width: 1; stroke-dasharray: none; stroke-linecap: butt; stroke-dashoffset: 0; stroke-linejoin: miter; stroke-miterlimit: 4; fill: rgb(0,0,0); fill-rule: nonzero; opacity: 1;" vector-effect="non-scaling-stroke"  x="-37.64" y="-1.12" rx="1.1" ry="1.1" width="75.28" height="2.24" />
</g>
</svg>